HIERARCHY
ROOT Hips
{
    OFFSET 0.000000 0.000000 0.000000
    CHANNELS 6 Xposition Yposition Zposition Zrotation Xrotation Yrotation
    JOINT Spine
    {
        OFFSET -0.000000 7.246840 0.000000
        CHANNELS 3 Zrotation Xrotation Yrotation
        JOINT Spine1
        {
            OFFSET -0.000000 20.289354 0.000000
            CHANNELS 3 Zrotation Xrotation Yrotation
            JOINT Neck
            {
                OFFSET -0.000000 20.206032 1.836912
                CHANNELS 3 Zrotation Xrotation Yrotation
                JOINT Head
                {
                    OFFSET -0.000000 12.372654 -1.767522
                    CHANNELS 3 Zrotation Xrotation Yrotation
                    End Site
                    {
                        OFFSET -0.000000 22.094025 0.000000
                    }
                }
            }
            JOINT LeftShoulder
            {
                OFFSET 3.465871 17.201674 -0.568930
                CHANNELS 3 Zrotation Xrotation Yrotation
                JOINT LeftArm
                {
                    OFFSET 14.070313 0.000000 0.000000
                    CHANNELS 3 Zrotation Xrotation Yrotation
                    JOINT LeftForeArm
                    {
                        OFFSET 26.549477 0.000000 0.000000
                        CHANNELS 3 Zrotation Xrotation Yrotation
                        JOINT LeftHand
                        {
                            OFFSET 18.880413 0.000000 0.000000
                            CHANNELS 3 Zrotation Xrotation Yrotation
                            End Site
                            {
                                OFFSET 13.256415 0.000000 0.000000
                            }
                        }
                    }
                }
            }
            JOINT RightShoulder
            {
                OFFSET -3.526370 17.201674 -0.568930
                CHANNELS 3 Zrotation Xrotation Yrotation
                JOINT RightArm
                {
                    OFFSET -14.070313 0.000000 0.000000
                    CHANNELS 3 Zrotation Xrotation Yrotation
                    JOINT RightForeArm
                    {
                        OFFSET -26.549477 0.000000 0.000000
                        CHANNELS 3 Zrotation Xrotation Yrotation
                        JOINT RightHand
                        {
                            OFFSET -18.880413 0.000000 0.000000
                            CHANNELS 3 Zrotation Xrotation Yrotation
                            End Site
                            {
                                OFFSET -13.256415 0.000000 0.000000
                            }
                        }
                    }
                }
            }
        }
    }
    JOINT LeftUpLeg
    {
        OFFSET 8.837609 0.000000 0.000000
        CHANNELS 3 Zrotation Xrotation Yrotation
        JOINT LeftLeg
        {
            OFFSET -0.000000 -41.345005 0.000000
            CHANNELS 3 Zrotation Xrotation Yrotation
            JOINT LeftFoot
            {
                OFFSET -0.000000 -35.500874 0.000000
                CHANNELS 3 Zrotation Xrotation Yrotation
                JOINT LeftToeBase
                {
                    OFFSET -0.000000 -5.744446 13.256415
                    CHANNELS 3 Zrotation Xrotation Yrotation
                    End Site
                    {
                        OFFSET -0.000000 0.000000 3.535044
                    }
                }
            }
        }
    }
    JOINT RightUpLeg
    {
        OFFSET -8.837609 0.000000 0.000000
        CHANNELS 3 Zrotation Xrotation Yrotation
        JOINT RightLeg
        {
            OFFSET -0.000000 -41.345005 0.000000
            CHANNELS 3 Zrotation Xrotation Yrotation
            JOINT RightFoot
            {
                OFFSET -0.000000 -35.500874 0.000000
                CHANNELS 3 Zrotation Xrotation Yrotation
                JOINT RightToeBase
                {
                    OFFSET -0.000000 -5.744446 13.256415
                    CHANNELS 3 Zrotation Xrotation Yrotation
                    End Site
                    {
                        OFFSET -0.000000 0.000000 3.535044
                    }
                }
            }
        }
    }
}
MOTION
Frames:    12
Frame Time:    0.010000
7.219379    82.350540    -62.754353    3.065122    5.954580    12.679989    -5.881125    -11.493509    0.137887    9.898336    3.734722    0.406769    -24.881962    32.854736    36.409740    -6.436603    -38.713051    30.705282    17.989363    -6.736740    7.912775    -47.912025    -9.931177    -29.584143    3.679006    -45.449150    -9.779300    -6.421551    -43.980331    -30.493874    -8.914345    5.567977    15.121636    81.026993    49.819046    1.380804    -8.293872    -14.276846    22.462904    34.467514    -6.081564    21.275257    -3.776551    2.694396    -3.442825    -3.214470    -10.636526    -7.325755    3.907921    4.805648    -6.907761    0.580302    -3.087054    -0.827972    -6.752634    4.359127    -5.737494    6.967402    -10.372180    2.242610    -3.552645    -0.580469    -12.867336    0.312817    -0.945201    -0.566781    
7.214588    82.349167    -62.752617    3.075199    5.950093    12.607996    -5.882091    -11.524681    0.149187    9.890994    3.743761    0.419221    -24.843872    32.889458    36.366730    -6.399555    -38.626869    30.679539    17.974337    -6.726488    7.913928    -47.849495    -9.916985    -29.495222    3.629941    -45.526844    -9.901256    -6.583210    -44.025505    -30.559731    -8.906691    5.608885    15.075110    80.946335    49.854561    1.485788    -8.303399    -14.301139    22.405973    34.549458    -6.082043    21.306355    -3.887299    2.841260    -2.882737    -3.081615    -10.937326    -7.387944    3.887073    5.053893    -7.508290    0.340328    -3.346910    -0.486384    -6.757673    4.358105    -5.706529    6.970859    -10.387744    2.231107    -3.570396    -0.569240    -12.821199    0.301145    -0.925616    -0.545516    
7.208596    82.348511    -62.751156    3.080563    5.944714    12.544856    -5.893910    -11.560471    0.148556    9.905258    3.768934    0.419064    -24.830944    32.929920    36.336327    -6.378072    -38.573383    30.652126    17.944014    -6.712915    7.923496    -47.777161    -9.887922    -29.394863    3.527197    -45.662300    -10.092927    -6.771434    -44.123402    -30.696407    -8.911386    5.571032    15.037260    80.960228    49.859024    1.506155    -8.317577    -14.282133    22.341026    34.625610    -6.049095    21.305784    -3.882832    2.841715    -2.885789    -3.079932    -10.922713    -7.386847    3.885182    5.033123    -7.448613    0.354070    -3.286589    -0.505830    -6.759916    4.356702    -5.665853    6.968093    -10.403137    2.267624    -3.877049    -1.248643    -13.191022    0.092711    0.043159    -0.166184    
7.201763    82.347511    -62.750496    3.085013    5.933543    12.483974    -5.902617    -11.576962    0.141352    9.905591    3.772108    0.413260    -24.765375    32.969040    36.290665    -6.403823    -38.473278    30.599659    17.934372    -6.683447    7.947772    -47.759617    -9.897895    -29.307819    3.429815    -45.721294    -10.239410    -6.937881    -44.128872    -31.234665    -8.882618    5.561689    15.009114    80.926628    49.895725    1.540165    -8.331606    -14.296995    22.315445    34.656540    -6.060233    21.296200    -3.881497    2.847806    -2.848036    -3.083884    -10.900752    -7.380572    3.832058    4.978324    -7.302336    0.520421    -3.258538    -0.743345    -6.757579    4.355198    -5.653418    6.965948    -10.401918    2.302343    -3.883491    -1.254051    -13.202236    0.084589    0.079115    -0.151567    
7.196435    82.346092    -62.747921    3.092062    5.916268    12.432122    -5.902821    -11.591722    0.130248    9.888813    3.778956    0.402962    -24.675800    32.963474    36.243977    -6.385995    -38.290485    30.586763    17.899109    -6.629947    7.942749    -47.687256    -9.902532    -29.212807    3.298639    -45.887028    -10.502269    -7.062192    -44.272728    -31.329851    -8.841075    5.525181    14.986884    80.930527    49.947147    1.530241    -8.380185    -14.283801    22.284174    34.723579    -6.031635    21.277800    -3.884767    2.863862    -2.819715    -3.086131    -10.880455    -7.293365    3.849320    4.944422    -7.338871    0.517692    -3.224694    -0.739287    -6.756143    4.383863    -5.447130    6.953070    -10.462156    2.063839    -3.580922    -0.529775    -12.739511    0.317493    -0.910859    -0.575036    
7.188931    82.345428    -62.747417    3.092991    5.900942    12.380071    -5.909759    -11.602635    0.118442    9.883843    3.769166    0.393357    -24.494394    33.108952    36.206089    -6.641494    -38.211521    30.430487    17.870928    -6.575397    7.935066    -47.639725    -9.908986    -29.132565    3.248765    -45.979656    -10.696596    -7.210872    -44.334332    -31.392462    -8.821935    5.498282    14.967204    80.942642    49.957516    1.534505    -8.404323    -14.256264    22.265669    34.752113    -6.005977    21.241165    -3.873518    2.873977    -2.812473    -3.089064    -10.877939    -7.304226    3.919531    4.949644    -7.410290    0.360555    -3.278962    -0.515069    -6.744904    4.379471    -5.443286    6.930452    -10.459324    2.114097    -3.562020    -0.509998    -12.742896    0.312367    -0.887447    -0.565607    
7.184988    82.345314    -62.745621    3.101233    5.880422    12.328039    -5.905049    -11.605783    0.103774    9.844486    3.750425    0.381333    -24.365332    33.149010    36.150669    -6.673481    -38.043900    30.380646    17.861418    -6.532263    7.934807    -47.575542    -9.886176    -29.055927    3.249035    -45.978348    -10.796409    -7.317532    -44.307362    -31.433372    -8.779485    5.482862    14.942797    80.929749    49.974136    1.563025    -8.435476    -14.217031    22.247692    34.792854    -5.962849    21.209476    -3.882002    2.893042    -2.764415    -3.085150    -10.855663    -7.254996    3.947048    4.917489    -7.445796    0.355394    -3.206538    -0.507462    -6.751536    4.387136    -5.396335    6.938233    -10.452403    2.097134    -3.589781    -0.500665    -12.731695    0.302904    -0.930917    -0.548734    
7.195535    82.347488    -62.745129    3.103138    5.862986    12.252572    -5.844220    -11.614972    0.102938    9.748924    3.728567    0.379912    -24.277298    33.212704    36.115337    -6.662039    -37.962917    30.352724    17.904053    -6.513747    7.945859    -47.543449    -9.855494    -28.969025    3.296943    -45.829372    -10.785323    -7.326391    -44.151985    -31.376135    -8.740432    5.498049    14.921131    80.886147    50.025833    1.625795    -8.473219    -14.209763    22.234726    34.846920    -5.937681    21.210056    -3.902136    2.917904    -2.745665    -3.041317    -10.870281    -7.282928    3.908259    4.934834    -7.368258    0.372402    -3.219963    -0.531792    -6.767701    4.378133    -5.381645    6.961189    -10.421813    2.127904    -3.575441    -0.524599    -12.704890    0.309916    -0.871890    -0.561073    
7.188126    82.347054    -62.742401    3.107790    5.837965    12.208168    -5.862239    -11.596863    0.088015    9.748726    3.688964    0.369251    -24.215120    33.283695    36.078411    -6.667085    -37.917870    30.307205    17.911045    -6.538022    7.922001    -47.449677    -9.760387    -28.847462    3.371506    -45.756767    -10.782020    -7.383764    -44.082355    -30.941032    -8.723360    5.503445    14.868344    80.877487    50.051586    1.659027    -8.531793    -14.151988    22.236956    34.907257    -5.868815    21.165453    -3.901933    2.941144    -2.680363    -3.039413    -10.857553    -7.274227    3.924580    4.911588    -7.400997    0.350519    -3.216463    -0.500533    -6.761623    4.389373    -5.352899    6.958038    -10.414538    2.147027    -3.588809    -0.509452    -12.709366    0.300455    -0.893058    -0.544070    
7.185540    82.341583    -62.730247    3.096037    5.801657    12.155333    -5.817824    -11.614556    0.070924    9.660941    3.706752    0.349863    -24.110340    33.341442    36.050499    -6.677866    -37.902653    30.277805    17.993608    -6.515668    7.932442    -47.402702    -9.693545    -28.782118    3.437824    -45.658787    -10.693016    -7.401168    -43.974808    -30.954079    -8.656188    5.501571    14.870646    80.874008    50.141006    1.656353    -8.609382    -14.158862    22.269384    34.939754    -5.859945    21.139254    -3.884408    2.986640    -2.646912    -3.026817    -10.867844    -7.296108    3.913058    4.875299    -7.381538    0.330690    -3.239679    -0.472287    -6.743217    4.424306    -5.303856    6.959914    -10.430489    2.135258    -3.574422    -0.513849    -12.690337    0.303773    -0.865296    -0.549911    
7.166793    82.339714    -62.716930    3.098059    5.785872    12.161033    -5.880416    -11.648800    0.011188    9.709205    3.738162    0.294009    -24.132631    33.356956    36.039139    -6.598265    -37.915531    30.292738    17.979879    -6.543846    7.922602    -47.270130    -9.573180    -28.650909    3.418029    -45.693642    -10.693810    -7.468796    -43.993839    -31.044895    -8.663424    5.476895    14.873735    80.915810    50.133121    1.638532    -8.676067    -14.091166    22.313972    34.977493    -5.788387    21.070812    -3.862904    3.000458    -2.665182    -3.049352    -10.836115    -7.190249    3.775958    4.773283    -7.115500    0.769693    -3.149663    -1.098624    -6.719024    4.457927    -5.307434    6.951668    -10.455729    2.104846    -3.611320    -0.490643    -12.647052    0.312003    -0.884424    -0.564929    
7.157887    82.340530    -62.720394    3.092500    5.762620    12.082720    -5.883607    -11.639618    0.004334    9.713814    3.724438    0.288080    -24.092503    33.371838    36.009987    -6.573523    -37.888741    30.278296    18.004818    -6.559020    7.933969    -47.234703    -9.486990    -28.554043    3.385556    -45.804852    -10.742491    -7.597697    -44.075626    -31.201839    -8.651732    5.490819    14.864013    80.884644    50.129726    1.669201    -8.716083    -14.032874    22.369339    34.993870    -5.724430    21.035696    -3.851398    3.007881    -2.608587    -3.042156    -10.805352    -7.239922    3.914974    4.779432    -7.328282    0.388663    -3.209844    -0.554977    -6.707190    4.449595    -5.253750    6.947958    -10.433202    2.154275    -3.612914    -0.484211    -12.662451    0.306485    -0.901668    -0.555044    
